<svg width="133" height="126" viewBox="0 0 133 126" fill="none" xmlns="http://www.w3.org/2000/svg">
<path d="M122.863 31.4293L22 24.0739L31.2527 74.2115C31.6868 76.5637 33.7259 78.279 36.1177 78.3039L115.472 79.1281L127.306 37.7923C128.18 34.742 126.028 31.6601 122.863 31.4293Z" fill="black"/>
<path d="M1 5L14.9331 7.84234C16.8091 8.22503 18.3018 9.64537 18.7771 11.5L22 24.0739M22 24.0739L122.863 31.4293C126.028 31.6601 128.18 34.742 127.306 37.7923L115.472 79.1281M22 24.0739L31.2527 74.2115C31.6868 76.5637 33.7259 78.279 36.1177 78.3039L115.472 79.1281M22 93H107.731C109.962 93 111.923 91.5214 112.538 89.3762L115.472 79.1281" stroke="black" stroke-width="10"/>
<circle cx="102.5" cy="114.5" r="8" fill="black" stroke="black" stroke-width="7"/>
<circle cx="39.5" cy="114.5" r="8" fill="black" stroke="black" stroke-width="7"/>
</svg>
