<svg width="874" height="613" viewBox="0 0 874 613" fill="none" xmlns="http://www.w3.org/2000/svg">
<path d="M66.7209 58.8999C46.1752 77.421 37.2281 102.538 35.2209 118.5C35.0542 211.333 34.8209 414.6 35.2209 485C35.6209 555.4 101.054 575.667 133.721 577C303.054 577.5 661.121 578.2 738.721 577C816.321 575.8 833.388 515.167 832.221 485C837.054 390.333 843.821 184.5 832.221 118.5C827.36 90.8432 814.779 71.7614 799.863 58.8999M66.7209 58.8999C82.0006 45.126 103.695 35 133.721 35H738.721C754.019 35.1937 779.185 41.0688 799.863 58.8999M66.7209 58.8999L429.221 309L799.863 58.8999" stroke="black" stroke-width="70"/>
</svg>
