<svg width="728" height="730" viewBox="0 0 728 730" fill="none" xmlns="http://www.w3.org/2000/svg">
<path d="M713 555.5L568.5 471.5C540.288 455.1 490.078 516.667 468.5 549.5C454.5 569.9 429.667 562 419 555.5C303.8 499.5 207.667 366.167 174 306.5C156.4 289.3 170.667 265.667 180 256L242.5 205C259.7 185.8 254 159.333 249 148.5L159.5 1C4.69986 21.4 -8.00014 169.5 4.99986 241C88.4999 569 431.5 704.5 463.5 717C495.5 729.5 667 751 707.5 662C739.9 590.8 724.667 561.333 713 555.5Z" fill="black" stroke="black"/>
</svg>
