<svg width="608" height="603" viewBox="0 0 608 603" fill="none" xmlns="http://www.w3.org/2000/svg">
<path fill-rule="evenodd" clip-rule="evenodd" d="M212.5 425C329.861 425 425 329.861 425 212.5C425 95.1395 329.861 0 212.5 0C95.1395 0 0 95.1395 0 212.5C0 329.861 95.1395 425 212.5 425ZM212.5 374C301.694 374 374 301.694 374 212.5C374 123.306 301.694 51 212.5 51C123.306 51 51 123.306 51 212.5C51 301.694 123.306 374 212.5 374Z" fill="black"/>
<path d="M407.665 343.326L607.335 545.286L549.815 602.153L350.145 400.194L407.665 343.326Z" fill="black"/>
</svg>
